<svg width="75" height="25" viewBox="0 0 75 25" fill="none" xmlns="http://www.w3.org/2000/svg">
<rect width="75" height="25" fill="white"/>
<path d="M28.4997 6.34814H29.2496V7.78464H28.373C28.2568 7.30933 27.9082 6.98189 27.2322 6.98189C26.6513 6.98189 26.4189 7.21426 26.4189 7.5417C26.4189 8.67189 29.4715 7.82689 29.4715 9.94995C29.4715 10.9428 28.7004 11.4604 27.5702 11.4604C26.8942 11.4604 26.4295 11.2808 26.102 10.964L25.9964 11.3442H25.257V9.83376H26.1337C26.2393 10.3302 26.6724 10.7105 27.4329 10.7105C28.035 10.7105 28.299 10.4675 28.299 10.1084C28.299 8.96764 25.2465 9.80208 25.2465 7.7107C25.2465 6.77064 26.007 6.23195 27.0949 6.23195C27.6653 6.23195 28.1195 6.39039 28.4046 6.6967L28.4997 6.34814Z" fill="#0A0A0A"/>
<path d="M30.7024 7.16145H29.9102V6.37983H30.7024V4.80601L31.9699 4.57364V6.37983H33.3113V7.16145H31.9699V9.61195C31.9699 10.3302 32.0861 10.6365 32.4875 10.6365C32.7198 10.6365 32.9311 10.5309 33.1212 10.3196L33.4803 10.9217C33.1951 11.2386 32.741 11.4604 32.16 11.4604C30.8397 11.4604 30.7024 10.4992 30.7024 9.7387V7.16145Z" fill="#0A0A0A"/>
<path d="M37.7233 8.85145C37.7233 7.78464 37.2903 7.02414 36.4664 7.02414C35.6319 7.02414 35.2094 7.78464 35.2094 8.85145C35.2094 9.9077 35.6319 10.6682 36.4664 10.6682C37.2903 10.6682 37.7233 9.9077 37.7233 8.85145ZM39.0753 8.83033C39.0753 10.2985 38.1353 11.4604 36.4453 11.4604C34.713 11.4604 33.8469 10.3408 33.8469 8.86201C33.8469 7.39383 34.7869 6.23195 36.4769 6.23195C38.2092 6.23195 39.0753 7.36214 39.0753 8.83033Z" fill="#0A0A0A"/>
<path d="M39.5024 7.02414V6.37983H41.3508V7.41495H41.3614C41.7205 6.63333 42.2909 6.23195 42.988 6.23195C43.1675 6.23195 43.3154 6.26364 43.3154 6.26364V7.49945C43.3154 7.49945 43.0514 7.44664 42.7662 7.44664C41.8895 7.44664 41.467 8.01701 41.467 9.25283V9.89714C41.467 10.6048 41.467 10.6048 42.2697 10.6788V11.3125H39.5024V10.6788C40.1995 10.6048 40.1995 10.6048 40.1995 9.89714V7.7952C40.1995 7.08751 40.1995 7.08751 39.5024 7.02414Z" fill="#0A0A0A"/>
<path d="M52.0249 7.16145H50.9159V9.89714C50.9159 10.6048 50.9159 10.6048 51.6975 10.6788V11.3125H48.9513V10.6788C49.6484 10.6048 49.6484 10.6048 49.6484 9.89714V7.16145H48.8139V6.37983H49.6484V5.41864C49.6484 4.74264 49.7434 3.72864 51.3384 3.72864C51.782 3.72864 52.1939 3.8237 52.5214 3.95045V5.24964H51.8031C51.7926 4.78489 51.6764 4.51026 51.3489 4.51026C50.9264 4.51026 50.8948 4.96445 50.8948 5.30245V6.37983H52.0249V7.16145Z" fill="#0A0A0A"/>
<path d="M52.7418 7.02414V6.37983H54.5902V7.41495H54.6008C54.9599 6.63333 55.5303 6.23195 56.2274 6.23195C56.407 6.23195 56.5549 6.26364 56.5549 6.26364V7.49945C56.5549 7.49945 56.2908 7.44664 56.0056 7.44664C55.1289 7.44664 54.7064 8.01701 54.7064 9.25283V9.89714C54.7064 10.6048 54.7064 10.6048 55.5092 10.6788V11.3125H52.7418V10.6788C53.4389 10.6048 53.4389 10.6048 53.4389 9.89714V7.7952C53.4389 7.08751 53.4389 7.08751 52.7418 7.02414Z" fill="#0A0A0A"/>
<path d="M60.6361 8.85145C60.6361 7.78464 60.203 7.02414 59.3792 7.02414C58.5447 7.02414 58.1222 7.78464 58.1222 8.85145C58.1222 9.9077 58.5447 10.6682 59.3792 10.6682C60.203 10.6682 60.6361 9.9077 60.6361 8.85145ZM61.9881 8.83033C61.9881 10.2985 61.048 11.4604 59.358 11.4604C57.6258 11.4604 56.7597 10.3408 56.7597 8.86201C56.7597 7.39383 57.6997 6.23195 59.3897 6.23195C61.122 6.23195 61.9881 7.36214 61.9881 8.83033Z" fill="#0A0A0A"/>
<path d="M62.5208 7.02414V6.37983H64.3903V7.04526H64.4009C64.6966 6.56995 65.2248 6.23195 65.9853 6.23195C67.7598 6.23195 67.8548 7.70014 67.8548 8.3022V9.89714C67.8548 10.6048 67.8548 10.6048 68.4886 10.6788V11.3125H65.943V10.6788C66.5873 10.6048 66.5873 10.6048 66.5873 9.89714V8.52401C66.5873 7.94308 66.5345 7.05583 65.6578 7.05583C64.6755 7.05583 64.4854 8.16489 64.4854 8.78808V9.89714C64.4854 10.6048 64.4854 10.6048 65.1297 10.6788V11.3125H62.5208V10.6788C63.2179 10.6048 63.2179 10.6048 63.2179 9.89714V7.7952C63.2179 7.08751 63.2179 7.08751 62.5208 7.02414Z" fill="#0A0A0A"/>
<path d="M69.4849 7.16145H68.6927V6.37983H69.4849V4.80601L70.7524 4.57364V6.37983H72.0939V7.16145H70.7524V9.61195C70.7524 10.3302 70.8686 10.6365 71.27 10.6365C71.5024 10.6365 71.7136 10.5309 71.9037 10.3196L72.2629 10.9217C71.9777 11.2386 71.5235 11.4604 70.9425 11.4604C69.6222 11.4604 69.4849 10.4992 69.4849 9.7387V7.16145Z" fill="#0A0A0A"/>
<path d="M30.2434 13.1695V14.099L29.3773 14.025C29.5357 14.2891 29.6096 14.5954 29.6096 14.9017C29.6096 15.8523 28.8175 16.5811 27.3915 16.5811C27.0958 16.5811 26.8423 16.56 26.6099 16.5072C26.4726 16.634 26.4198 16.7607 26.4198 16.898C26.4198 17.7008 28.8597 16.9086 29.7998 17.8486C30.0533 18.1021 30.1695 18.4085 30.1695 18.7781C30.1695 19.845 29.1343 20.4576 27.4655 20.4576C25.3741 20.4576 24.8354 19.8027 24.8354 19.1056C24.8354 18.6408 25.1628 18.2395 25.8916 18.0176C25.4586 17.8486 25.2473 17.5846 25.2473 17.1726C25.2473 16.803 25.5114 16.4861 25.9445 16.2537C25.448 15.9474 25.2051 15.4721 25.2051 14.8911C25.2051 13.8983 25.9973 13.1695 27.4232 13.1695C27.8246 13.1695 28.1731 13.2223 28.4478 13.3173L30.2434 13.1695ZM27.5394 19.7393C28.5006 19.7393 28.9653 19.4436 28.9653 19C28.9653 18.4085 28.3105 18.2817 27.5605 18.2817C26.8106 18.2817 26.1663 18.4085 26.1663 19C26.1663 19.4436 26.5782 19.7393 27.5394 19.7393ZM28.3316 14.8806C28.3316 14.2996 27.9936 13.8666 27.4126 13.8666C26.8211 13.8666 26.4831 14.2996 26.4831 14.8806C26.4831 15.451 26.8211 15.884 27.4126 15.884C27.9936 15.884 28.3316 15.451 28.3316 14.8806Z" fill="#0A0A0A"/>
<path d="M30.7105 13.9616V13.3173H32.559V14.3525H32.5695C32.9287 13.5708 33.499 13.1695 34.1962 13.1695C34.3757 13.1695 34.5236 13.2011 34.5236 13.2011V14.437C34.5236 14.437 34.2595 14.3841 33.9743 14.3841C33.0977 14.3841 32.6752 14.9545 32.6752 16.1903V16.8346C32.6752 17.5423 32.6752 17.5423 33.4779 17.6163V18.25H30.7105V17.6163C31.4077 17.5423 31.4077 17.5423 31.4077 16.8346V14.7327C31.4077 14.025 31.4077 14.025 30.7105 13.9616Z" fill="#0A0A0A"/>
<path d="M38.0878 16.3276V16.0319H37.7287C36.5457 16.0319 36.1443 16.2854 36.1443 16.8769C36.1443 17.3205 36.4189 17.6268 36.9259 17.6268C37.6019 17.6268 38.0878 17.0776 38.0878 16.3276ZM39.989 17.6163V18.1972C39.7567 18.3028 39.4715 18.3768 39.1546 18.3768C38.6159 18.3768 38.3096 18.1655 38.2462 17.6691H38.2357C37.9082 18.1338 37.3484 18.3979 36.609 18.3979C35.4788 18.3979 34.8662 17.8381 34.8662 16.9403C34.8662 15.9896 35.5211 15.3453 37.792 15.3453H38.0878V15.0073C38.0878 14.4581 37.9188 13.93 37.1583 13.93C36.5985 13.93 36.2922 14.2151 36.102 14.7961L35.0247 14.4158C35.3943 13.6236 36.102 13.1695 37.2217 13.1695C38.7532 13.1695 39.3553 13.8666 39.3553 14.9862V16.8346C39.3553 17.5423 39.3553 17.5423 39.989 17.6163Z" fill="#0A0A0A"/>
<path d="M40.4338 13.9616V13.3173H42.2717V13.9722H42.2822C42.5463 13.518 43.1061 13.1695 43.8138 13.1695C45.282 13.1695 46.1376 14.2996 46.1376 15.7678C46.1376 17.2466 45.2081 18.3979 43.7504 18.3979C43.1484 18.3979 42.6308 18.1444 42.3562 17.7747H42.3456C42.3562 17.9543 42.3562 18.1866 42.3562 18.4718V18.9155C42.3562 19.6337 42.3562 19.6337 43.1378 19.7076V20.3414H40.381V19.7076C41.0887 19.6337 41.0887 19.6337 41.0887 18.926V14.7327C41.0887 14.025 41.0887 14.025 40.4338 13.9616ZM42.3351 15.789C42.3351 17.2677 43.0427 17.6057 43.5497 17.6057C44.3947 17.6057 44.7856 16.7818 44.7856 15.7784C44.7856 14.775 44.3947 13.9616 43.5497 13.9616C43.0427 13.9616 42.3351 14.2891 42.3351 15.789Z" fill="#0A0A0A"/>
<path fill-rule="evenodd" clip-rule="evenodd" d="M46.0975 11.4604C44.4286 11.4604 43.5202 10.4464 43.5202 8.87258C43.5202 7.31989 44.492 6.23195 46.0235 6.23195C47.5762 6.23195 48.3579 7.26708 48.3579 8.58739C48.3579 8.85145 48.3367 9.09439 48.3367 9.09439H44.8722C44.9145 10.0767 45.3898 10.6682 46.2454 10.6682C47.125 10.6682 47.6875 10.6682 48 10.1875L48.5942 10.7929V12.9476C48.5942 13.4124 48.5837 13.6659 48.5626 13.9194H48.5731C48.8689 13.4758 49.4076 13.1695 50.1047 13.1695C51.8792 13.1695 51.9637 14.6376 51.9637 15.2397V16.8346C51.9637 17.2012 51.9637 17.3779 52.0517 17.4733C52.1337 17.5622 52.2919 17.5806 52.5974 17.6163V18.25H50.0624V17.6163C50.3679 17.5806 50.5262 17.5622 50.6081 17.4733C50.6962 17.3779 50.6962 17.2012 50.6962 16.8346V15.4615C50.6962 14.8806 50.6539 13.9933 49.7772 13.9933C48.7949 13.9933 48.5942 15.1024 48.5942 15.7256V16.8346C48.5942 17.5423 48.5942 17.5423 49.2386 17.6163V18.25H46.6719V17.6163C46.9912 17.5802 47.1549 17.5617 47.2387 17.4702C47.3267 17.374 47.3267 17.1972 47.3267 16.8346V12.2083C47.3267 11.5006 47.3125 11.4688 46.625 11.4604H46.0975ZM44.8828 8.39726H47.0375C47.027 7.61563 46.6679 6.99245 45.9813 6.99245C45.3159 6.99245 44.9462 7.58395 44.8828 8.39726Z" fill="#0A0A0A"/>
<g clip-path="url(#clip0_3213_27)">
<path d="M10.8253 0L21.6506 6.25V18.75L10.8253 25L0 18.75V6.25L10.8253 0Z" fill="#E10098"/>
<path d="M10.8057 2.14844L19.7704 7.32422V17.6758L10.8057 22.8516L1.84094 17.6758V7.32422L10.8057 2.14844Z" fill="black" fill-opacity="0.25"/>
<path d="M10.8057 2.14844L19.7646 7.31648L14.1442 6.00098L5.18527 11.169L1.84668 17.6526V7.31648L10.8057 2.14844Z" fill="black" fill-opacity="0.2"/>
<path d="M8.99624 8.44873H10.0744V10.514H8.81401C8.64697 9.83062 8.14584 9.35986 7.17397 9.35986C6.33876 9.35986 6.00468 9.69395 6.00468 10.1647C6.00468 11.7896 10.3933 10.5747 10.3933 13.627C10.3933 15.0544 9.28476 15.7985 7.65991 15.7985C6.68803 15.7985 6.01987 15.5404 5.54912 15.0848L5.39726 15.6315H4.33427V13.46H5.59467C5.74653 14.1737 6.36914 14.7204 7.46249 14.7204C8.32807 14.7204 8.70771 14.3711 8.70771 13.8548C8.70771 12.2147 4.31909 13.4144 4.31909 10.4077C4.31909 9.05615 5.41245 8.28169 6.97656 8.28169C7.79658 8.28169 8.44956 8.50947 8.85957 8.94985L8.99624 8.44873ZM18.2337 8.28169V9.61802L16.9885 9.51172C17.2162 9.89136 17.3225 10.3317 17.3225 10.7721C17.3225 12.1388 16.1836 13.1866 14.1336 13.1866C13.7084 13.1866 13.3439 13.1562 13.0098 13.0803C12.8124 13.2625 12.7365 13.4448 12.7365 13.6422C12.7365 14.7963 16.2444 13.6574 17.5959 15.0089C17.9603 15.3733 18.1274 15.8137 18.1274 16.3452C18.1274 17.879 16.6392 18.7597 14.2399 18.7597C11.2331 18.7597 10.4587 17.8182 10.4587 16.816C10.4587 16.1478 10.9294 15.5708 11.9772 15.2519C11.3546 15.0089 11.0509 14.6292 11.0509 14.037C11.0509 13.5055 11.4305 13.05 12.0532 12.7159C11.3394 12.2755 10.9902 11.5921 10.9902 10.7569C10.9902 9.32949 12.1291 8.28169 14.1791 8.28169C14.7562 8.28169 15.2573 8.35762 15.6521 8.49429L18.2337 8.28169ZM14.3462 17.7271C15.7281 17.7271 16.3962 17.3019 16.3962 16.6641C16.3962 15.8137 15.4547 15.6315 14.3765 15.6315C13.2984 15.6315 12.3721 15.8137 12.3721 16.6641C12.3721 17.3019 12.9643 17.7271 14.3462 17.7271ZM15.4851 10.7417C15.4851 9.90654 14.9992 9.28394 14.1639 9.28394C13.3136 9.28394 12.8276 9.90654 12.8276 10.7417C12.8276 11.5618 13.3136 12.1844 14.1639 12.1844C14.9992 12.1844 15.4851 11.5618 15.4851 10.7417Z" fill="white"/>
</g>
<defs>
<clipPath id="clip0_3213_27">
<rect width="21.6509" height="25" fill="white"/>
</clipPath>
</defs>
</svg>
